<svg id="Layer_1" data-name="Layer 1" xmlns="http://www.w3.org/2000/svg" viewBox="0 0 361 361"><defs><style>.cls-1{fill:#010101;}.cls-2{fill:#100e8b;}.cls-3{fill:#c60908;}.cls-4{fill:#4a4a4c;}.cls-5{fill:#49494b;}.cls-6{fill:#d2d2d2;}.cls-7{fill:#d1d1d1;}.cls-8{fill:#dcdcdc;}.cls-9{fill:#d8d6d6;}.cls-10{fill:#d4d4d4;}.cls-11{fill:#e3e3e3;}.cls-12{fill:#4f9946;}.cls-13{fill:#d587c1;}.cls-14{fill:#020202;}.cls-15{fill:#040404;}</style></defs><title>9ners_Logo</title><path class="cls-1" d="M196.52,13C296.25,13,377,94,376.94,193.83c-.1,99.46-81,180.2-180.59,180.17C96.62,374,15.84,293,15.94,193.17,16,93.71,97,13,196.52,13ZM295,189.05c-.65-.14-.75.33-.87.78-8.15,2.51-11.78,6.68-11.94,13.93s3.81,12.17,9.49,16c5.95,4,12.17,7.54,18,11.73a18.67,18.67,0,0,1,6.7,21.76c-2.6,7.07-9.59,11.23-18.33,11.07-8.43-.16-14.35-4.36-18.65-11.73a6.94,6.94,0,0,0,1.3,7.18c7.68,9.52,24.32,10.63,33.71,2.13,8.88-8,8.9-22.3,0-31.24-4-4.06-8.93-6.92-13.81-9.79-3.74-2.19-7.5-4.35-10.63-7.4-7.43-7.25-4.19-18.5,3.85-20,.06,1,.1,2,.17,3,1.15,15.17,12.12,27.26,27.42,30.2,14.11,2.71,29.16-5.17,35.43-18.55a33,33,0,0,0-8.81-39.4,32.62,32.62,0,0,0-40.28-1.39c-7.27,5.4-12.71,12.2-12.77,22ZM76.07,224.91c6.32,17.1,18.4,24.41,37.09,21.93-5.37,6.2-10.74,12.39-16.27,18.79,5.18.36,18.57-14.15,34.29-36.83v9c0,8.33,0,16.66,0,25,0,1.32-.7,3.34,1.81,3.24s1.49-2.09,1.67-3.39a19,19,0,0,0,0-2.5c0-18.32,0-36.65.05-55,0-1.3-.86-3,.89-4q26.61,32.7,53.18,65.35c1.33-1.23.85-2.29.85-3.19q.06-34,0-68c0-1.5,1.23-4.36-1.71-4.16-2.65.17-1.37,2.92-1.38,4.46-.1,18.32-.06,36.65-.07,55,0,1.72-.15,3.43-.27,6.28-18.56-22.76-36.34-44.56-54.11-66.37l-1,.39v16.52c-8.05-14.78-19.44-19.53-34.11-17.19-1.24-4.6-2.14-9.33-4.83-13.39-1-1.45-1.61-2.87-1.17-4.62,2.51,1.95,5.15,3.66,8.38,4.14,1.34.2,3.14,1.35,3.56-1,.36-2.1-1.62-1.69-2.74-2-7.09-2-10.61-6.25-10.8-13.57-.11-4.81-.06-9.64,0-14.46,0-3.62-1.08-8.23.71-10.57s6.56-.46,10-.69c.17,0,.34,0,.5,0,1.11-.06,2.47.29,2.37-1.61s-1.54-1.32-2.57-1.4c-3.61-.29-8.73,1.59-10.45-.8-1.83-2.55-.53-7.35-.6-11.17a20.67,20.67,0,0,0,0-2.49c-.19-1.42.89-3.77-2-3.49-2.4.23-1.32,2.31-1.33,3.52-.09,14.13,0,28.26-.1,42.39a18,18,0,0,0,3.91,12c-2.41.51-3.55-1.41-5-2.63-12.13-9.94-30.84-9.69-42.25.56-12.62,11.33-15.25,29.23-6.3,42.91C44.79,225,58.89,229.6,76.07,224.91ZM193.73,101a33,33,0,1,0-32.79-33.21A32.93,32.93,0,0,0,193.73,101Zm.48,179a33,33,0,1,0,32.72,33.27A33,33,0,0,0,194.21,280Zm52.47-40.6c2.5-.58,4.46-.88,6.32-1.48a24.57,24.57,0,0,0,16.91-27.2c-1.78-11.12-12.79-19.78-24.73-19.87-3.44,0-4.09,1.12-4.07,4.25.12,22.31,0,44.63.11,66.94,0,1.53-1.11,4.16,2.09,3.94,2.77-.2,1.48-2.56,1.52-3.92.14-6,.06-12.07.06-16.15,6.25,5.54,13.18,11.51,19.89,17.72,1.91,1.77,3.43,3.37,6.37,1.61ZM114.35,138.1V132c0-9.33,0-18.65,0-28,0-1.39.51-3.23-2-3.08-2.28.14-1.41,1.92-1.41,3q-.08,34.45,0,68.92c0,1.08-.91,2.88,1.33,3.08,2.44.23,2.06-1.56,2.06-3,0-7.49,0-15,0-22.48.1-10.09,7.44-17.61,17.07-17.61,9.44,0,16.48,7.37,16.57,17.44.07,7.5,0,15,0,22.48,0,1.3-.74,3.27,1.84,3.16s1.74-2,1.75-3.33c.06-7.32.13-14.65,0-22a23.35,23.35,0,0,0-3-11.44C142.51,128.58,124.74,125.71,114.35,138.1Zm87.26,27.13c-1.39,1.2-2.53,2.14-3.62,3.13-7.16,6.47-16.32,7.6-23.91,3.16-2.69-1.57-3.06-2.64-.63-5,8.87-8.55,17.47-17.36,26.31-25.94,2-2,2.22-3.11-.11-5a24.16,24.16,0,0,0-16.55-5.71,23.9,23.9,0,0,0-22.29,16.87c-3.07,10.13.94,20.58,10.31,26.86a24,24,0,0,0,27.53-1.16C201.05,170.59,202.7,168.56,201.61,165.23Zm2.57,63.45v33.49c0,2-.51,4,2.79,3.93,7.32-.17,14.66,0,22-.07,1,0,2.54.43,2.66-1.35.15-2.22-1.61-1.69-2.8-1.71-5.84-.05-11.67-.11-17.5,0-2.39.05-3.61-.29-3.5-3.17.22-6.32.16-12.66,0-19-.05-2.36.63-3.22,3.07-3.13,4.49.18,9,.09,13.49,0,1.21,0,3.07.58,3.16-1.41.12-2.41-2-1.73-3.31-1.75-4.33-.08-8.66-.14-13,0-2.49.09-3.48-.55-3.44-3.29q.24-17,0-34c0-2.66.75-3.41,3.36-3.32,5.83.19,11.66.09,17.49,0,1.17,0,3,.62,3-1.56s-1.86-1.47-3-1.48c-6.83-.06-13.67.19-20.49-.12-3.57-.16-4,1.32-4,4.33C204.26,206.35,204.18,217.52,204.18,228.68Z" transform="translate(-15.94 -13)"/><path class="cls-2" d="M193.73,101a33,33,0,1,1,33.2-32.79A32.93,32.93,0,0,1,193.73,101Z" transform="translate(-15.94 -13)"/><path class="cls-3" d="M295,189.19c.06-9.76,5.5-16.56,12.77-22A32.62,32.62,0,0,1,348,168.62a33,33,0,0,1,8.81,39.4c-6.27,13.38-21.32,21.26-35.43,18.55-15.3-2.94-26.27-15-27.42-30.2-.07-1-.11-2-.17-3,7.92-2.09,13.69,1.6,18.69,7.44,1.44-4.86-1.68-6.79-4.6-8.74C304,189.47,299.38,189.77,295,189.19Z" transform="translate(-15.94 -13)"/><path class="cls-4" d="M90.94,172.19c-.44,1.75.21,3.17,1.17,4.62,2.69,4.06,3.59,8.79,4.83,13.39a34,34,0,0,0-18.76,15.18c-5-7.49-8.21-15.92-12.44-23.81-.53-1-.87-2.37-2.25-2.42s-1.79,1.34-2.28,2.34c-3,6.14-6,12.24-8.71,18.48-1,2.34-4.59,5.53-1.62,7.19,2.14,1.2,3.24-3.48,4.14-5.72,1.74-4.32,5.17-3.44,8.37-3.42s6.61-1,8.41,3.36c1,2.51,1.31,6.13,5.2,6.61a42.17,42.17,0,0,0-.93,16.92c-17.18,4.69-31.28.07-39.87-13.08-9-13.68-6.32-31.58,6.3-42.91,11.41-10.25,30.12-10.5,42.25-.56,1.49,1.22,2.63,3.14,5,2.63Z" transform="translate(-15.94 -13)"/><path class="cls-5" d="M194.21,280a33,33,0,1,1-33.27,32.73A33,33,0,0,1,194.21,280Zm.32,49c4.49,0,9-.06,13.45,0,2.05,0,3-.56,3-2.8q-.12-13.69,0-27.4c0-2.19-.82-2.88-2.93-2.86q-13.46.11-26.9,0c-2.27,0-3.28.59-3.25,3.06q.17,13.46,0,26.9c0,2.4.85,3.19,3.18,3.12C185.56,328.91,190.05,329,194.53,329Z" transform="translate(-15.94 -13)"/><path class="cls-6" d="M76.07,224.91A42.17,42.17,0,0,1,77,208l1.18-2.61A34,34,0,0,1,96.94,190.2c14.67-2.34,26.06,2.41,34.11,17.19V190.87l1-.39c17.77,21.81,35.55,43.61,54.11,66.37.12-2.85.26-4.56.27-6.28,0-18.32,0-36.65.07-55,0-1.54-1.27-4.29,1.38-4.46,2.94-.2,1.7,2.66,1.71,4.16q.12,34,0,68c0,.9.48,2-.85,3.19q-26.61-32.71-53.18-65.35c-1.75,1.06-.89,2.72-.89,4-.07,18.32-.05,36.65-.05,55a19,19,0,0,1,0,2.5c-.18,1.3.79,3.3-1.67,3.39s-1.8-1.92-1.81-3.24c0-8.33,0-16.66,0-25v-9c-15.72,22.68-29.11,37.19-34.29,36.83,5.53-6.4,10.9-12.59,16.27-18.79C94.47,249.32,82.39,242,76.07,224.91Zm4.06-2.81c1.65,14.05,14.74,23.48,29.05,20.93,13.65-2.43,22.92-17.69,19.19-31.59S110.21,189.52,97,194.06C84.8,197.7,78.24,208.62,80.13,222.1Z" transform="translate(-15.94 -13)"/><path class="cls-7" d="M246.68,239.4l24.47,25.84c-2.94,1.76-4.46.16-6.37-1.61-6.71-6.21-13.64-12.18-19.89-17.72,0,4.08.08,10.11-.06,16.15,0,1.36,1.25,3.72-1.52,3.92-3.2.22-2.09-2.41-2.09-3.94-.07-22.31,0-44.63-.11-66.94,0-3.13.63-4.27,4.07-4.25,11.94.09,22.95,8.75,24.73,19.87A24.57,24.57,0,0,1,253,237.92C251.14,238.52,249.18,238.82,246.68,239.4Zm-1.79-24.81c0,6.17.1,12.34,0,18.5-.07,2.55.73,3,3.16,2.63,10.53-1.41,18.78-10.28,18.89-20.58.09-9.92-8.57-19.72-18.56-21-2.36-.31-3.65,0-3.52,3C245.07,202.92,244.89,208.76,244.89,214.59Z" transform="translate(-15.94 -13)"/><path class="cls-8" d="M114.35,138.1c10.39-12.39,28.16-9.52,34.28,1.16a23.35,23.35,0,0,1,3,11.44c.14,7.32.07,14.65,0,22,0,1.32.72,3.23-1.75,3.33s-1.83-1.86-1.84-3.16c0-7.49,0-15,0-22.48-.09-10.07-7.13-17.44-16.57-17.44-9.63,0-17,7.52-17.07,17.61-.07,7.49,0,15,0,22.48,0,1.43.38,3.22-2.06,3-2.24-.2-1.32-2-1.33-3.08q-.08-34.46,0-68.92c0-1.09-.87-2.87,1.41-3,2.48-.15,2,1.69,2,3.08,0,9.32,0,18.64,0,28Z" transform="translate(-15.94 -13)"/><path class="cls-9" d="M295,189.19c4.4.58,9,.28,12.93,2.89,2.92,1.95,6,3.88,4.6,8.74-5-5.84-10.77-9.53-18.69-7.44-8,1.54-11.28,12.79-3.85,20,3.13,3.05,6.89,5.21,10.63,7.4,4.88,2.87,9.77,5.73,13.81,9.79,8.88,8.94,8.86,23.21,0,31.24-9.39,8.5-26,7.39-33.71-2.13a6.94,6.94,0,0,1-1.3-7.18c4.3,7.37,10.22,11.57,18.65,11.73,8.74.16,15.73-4,18.33-11.07a18.67,18.67,0,0,0-6.7-21.76c-5.79-4.19-12-7.77-18-11.73-5.68-3.78-9.66-8.69-9.49-16s3.79-11.42,11.94-13.93c.49,0,1.19.15.87-.78Z" transform="translate(-15.94 -13)"/><path class="cls-10" d="M201.61,165.23c1.09,3.33-.56,5.36-3,7.25a24,24,0,0,1-27.53,1.16c-9.37-6.28-13.38-16.73-10.31-26.86a23.9,23.9,0,0,1,22.29-16.87,24.16,24.16,0,0,1,16.55,5.71c2.33,1.87,2.15,3,.11,5-8.84,8.58-17.44,17.39-26.31,25.94-2.43,2.34-2.06,3.41.63,5,7.59,4.44,16.75,3.31,23.91-3.16C199.08,167.37,200.22,166.43,201.61,165.23ZM196.49,138c-7.87-7.36-19.4-6.9-27.45,1.47-7.51,7.82-7.67,19.73-.21,27.07Z" transform="translate(-15.94 -13)"/><path class="cls-6" d="M204.18,228.68c0-11.16.08-22.33-.06-33.49,0-3,.42-4.49,4-4.33,6.82.31,13.66.06,20.49.12,1.16,0,3-.65,3,1.48s-1.78,1.55-3,1.56c-5.83.06-11.66.16-17.49,0-2.61-.09-3.39.66-3.36,3.32q.23,17,0,34c0,2.74,1,3.38,3.44,3.29,4.33-.15,8.66-.09,13,0,1.34,0,3.43-.66,3.31,1.75-.09,2-1.95,1.39-3.16,1.41-4.49.06-9,.15-13.49,0-2.44-.09-3.12.77-3.07,3.13.14,6.33.2,12.67,0,19-.11,2.88,1.11,3.22,3.5,3.17,5.83-.14,11.66-.08,17.5,0,1.19,0,3-.51,2.8,1.71C231.5,266.46,230,266,229,266c-7.33,0-14.67-.1-22,.07-3.3.08-2.79-2-2.79-3.93Z" transform="translate(-15.94 -13)"/><path class="cls-11" d="M90.94,172.19,89.79,171a18,18,0,0,1-3.91-12c.12-14.13,0-28.26.1-42.39,0-1.21-1.07-3.29,1.33-3.52,2.88-.28,1.8,2.07,2,3.49a20.67,20.67,0,0,1,0,2.49c.07,3.82-1.23,8.62.6,11.17,1.72,2.39,6.84.51,10.45.8,1,.08,2.46-.49,2.57,1.4s-1.26,1.55-2.37,1.61c-.16,0-.33,0-.5,0-3.46.23-8.33-1.52-10,.69s-.67,7-.71,10.57c-.06,4.82-.11,9.65,0,14.46.19,7.32,3.71,11.61,10.8,13.57,1.12.3,3.1-.11,2.74,2-.42,2.39-2.22,1.24-3.56,1C96.09,175.85,93.45,174.14,90.94,172.19Z" transform="translate(-15.94 -13)"/><path class="cls-3" d="M295,189.05c.32.93-.38.74-.87.78C294.27,189.38,294.37,188.91,295,189.05Z" transform="translate(-15.94 -13)"/><path class="cls-12" d="M78.18,205.38,77,208c-3.89-.48-4.16-4.1-5.2-6.61C70,197,66.56,198.05,63.39,198s-6.63-.9-8.37,3.42c-.9,2.24-2,6.92-4.14,5.72-3-1.66.6-4.85,1.62-7.19,2.71-6.24,5.75-12.34,8.71-18.48.49-1,.84-2.39,2.28-2.34s1.72,1.42,2.25,2.42C70,189.46,73.17,197.89,78.18,205.38Zm-14.81-21c-1,1.86-1.88,3.41-2.58,5.05s-2.23,3.16-1.93,5.25c7.31.42,8.57.37,8.67-.74.25-2.95-2-5.08-3-7.63A14.39,14.39,0,0,0,63.37,184.41Z" transform="translate(-15.94 -13)"/><path class="cls-13" d="M194.53,329c-4.48,0-9-.09-13.45,0-2.33.07-3.21-.72-3.18-3.12q.15-13.46,0-26.9c0-2.47,1-3.08,3.25-3.06q13.46.14,26.9,0c2.11,0,3,.67,2.93,2.86q-.12,13.69,0,27.4c0,2.24-.94,2.84-3,2.8C203.5,328.94,199,329,194.53,329Zm12.41-16.47c0-12.53,0-12.53-12.72-12.53-12.28,0-12.28,0-12.28,12.47s0,12.53,12.71,12.53C206.94,325,206.94,325,206.94,312.53Z" transform="translate(-15.94 -13)"/><path class="cls-14" d="M97,194.06c13.24-4.54,27.66,3.44,31.4,17.38S122.83,240.6,109.18,243c-14.31,2.55-27.4-6.88-29.05-20.93C91.66,216.3,96.34,206.39,97,194.06Z" transform="translate(-15.94 -13)"/><path class="cls-4" d="M97,194.06c-.63,12.33-5.31,22.24-16.84,28C78.24,208.62,84.8,197.7,97,194.06Z" transform="translate(-15.94 -13)"/><path class="cls-14" d="M244.89,214.59c0-5.83.18-11.67-.08-17.49-.13-3,1.16-3.31,3.52-3,10,1.32,18.65,11.12,18.56,21-.11,10.3-8.36,19.17-18.89,20.58-2.43.33-3.23-.08-3.16-2.63C245,226.93,244.89,220.76,244.89,214.59Z" transform="translate(-15.94 -13)"/><path class="cls-15" d="M196.49,138l-27.66,28.54c-7.46-7.34-7.3-19.25.21-27.07C177.09,131.11,188.62,130.65,196.49,138Z" transform="translate(-15.94 -13)"/><path class="cls-4" d="M63.37,184.41a14.39,14.39,0,0,1,1.18,1.93c1,2.55,3.23,4.68,3,7.63-.1,1.11-1.36,1.16-8.67.74-.3-2.09,1.2-3.56,1.93-5.25S62.41,186.27,63.37,184.41Z" transform="translate(-15.94 -13)"/><path class="cls-4" d="M206.94,312.53c0,12.47,0,12.47-12.29,12.47-12.71,0-12.71,0-12.71-12.53s0-12.47,12.28-12.47C206.94,300,206.94,300,206.94,312.53Z" transform="translate(-15.94 -13)"/></svg>